<svg xmlns:svg="http://www.w3.org/2000/svg" xmlns="http://www.w3.org/2000/svg" version="1.0" width="971.7" height="195.7" id="svg1936">
  <defs id="defs1938"/>
  <g transform="translate(151.616,-642.7961)" id="layer1">
    <g id="g1967">
      <path d="m222 784.7c-35 25.8 -85.7 39.6 -129.4 39.6 -61.2 0 -116.4 -22.7 -158.1 -60.3 -3.3 -3 -0.3 -7 3.6 -4.7 45 26.2 100.7 41.9 158.2 41.9 38.8 0 81.4 -8 120.6 -24.7 5.9 -2.5 10.9 3.9 5.1 8.2" id="path8" style="fill:#ff9900;fill-opacity:1;fill-rule:evenodd;stroke:none"/>
      <path d="m236.6 768.1c-4.5 -5.7 -29.6 -2.7 -40.8 -1.4 -3.4 0.4 -4 -2.6 -0.9 -4.7 20 -14.1 52.8 -10 56.7 -5.3 3.8 4.7 -1 37.6 -19.8 53.4 -2.9 2.4 -5.6 1.1 -4.4 -2.1 4.2 -10.5 13.7 -34.2 9.2 -39.9" id="path10" style="fill:#ff9900;fill-opacity:1;fill-rule:evenodd;stroke:none"/>
      <path d="m196.5 662.6 0 -13.7c0 -2.1 1.6 -3.5 3.5 -3.5l61.3 0c2 0 3.5 1.4 3.5 3.5l0 11.7c-0 2 -1.7 4.5 -4.6 8.6l-31.7 45.3c11.8 -0.3 24.3 1.5 34.9 7.5 2.4 1.4 3.1 3.4 3.3 5.3l0 14.6c0 2 -2.2 4.3 -4.5 3.1 -18.8 -9.9 -43.9 -11 -64.7 0.1 -2.1 1.2 -4.4 -1.2 -4.4 -3.1l0 -13.9c0 -2.2 0 -6 2.3 -9.4l36.8 -52.7 -32 0c-2 0 -3.5 -1.4 -3.5 -3.4" id="path12" style="fill:#FFFFFF;fill-rule:evenodd;stroke:none"/>
      <path d="m-27 748 -18.6 0c-1.8 -0.1 -3.2 -1.5 -3.3 -3.2l0 -95.7c0 -1.9 1.6 -3.4 3.6 -3.4l17.4 0c1.8 0.1 3.3 1.5 3.4 3.2l0 12.5 0.3 0c4.5 -12.1 13.1 -17.7 24.5 -17.7 11.7 0 19 5.6 24.2 17.7 4.5 -12.1 14.8 -17.7 25.7 -17.7 7.8 0 16.4 3.2 21.6 10.5 5.9 8 4.7 19.7 4.7 30l-0 60.4c0 1.9 -1.6 3.5 -3.6 3.5l-18.6 0c-1.9 -0.1 -3.4 -1.6 -3.4 -3.5l0 -50.7c0 -4 0.4 -14.1 -0.5 -17.9 -1.4 -6.4 -5.6 -8.2 -11 -8.2 -4.5 0 -9.2 3 -11.1 7.8 -1.9 4.8 -1.7 12.9 -1.7 18.3l0 50.7c0 1.9 -1.6 3.5 -3.6 3.5l-18.6 0c-1.9 -0.1 -3.4 -1.6 -3.4 -3.5l-0 -50.7c0 -10.7 1.8 -26.4 -11.5 -26.4 -13.4 0 -12.9 15.3 -12.9 26.4l0 50.7c0 1.9 -1.6 3.5 -3.6 3.5" id="path14" style="fill:#FFFFFF;fill-rule:evenodd;stroke:none"/>
      <path d="m317.5 643.7c27.7 0 42.6 23.8 42.6 54 0 29.2 -16.5 52.3 -42.6 52.3 -27.2 0 -41.9 -23.8 -41.9 -53.4 0 -29.8 15 -52.9 41.9 -52.9m0.2 19.5c-13.7 0 -14.6 18.7 -14.6 30.4 0 11.7 -0.2 36.7 14.4 36.7 14.4 0 15.1 -20.1 15.1 -32.4 0 -8.1 -0.3 -17.7 -2.8 -25.4 -2.1 -6.7 -6.3 -9.3 -12.2 -9.3" id="path16" style="fill:#FFFFFF;fill-rule:evenodd;stroke:none"/>
      <path d="m396 748 -18.6 0c-1.9 -0.1 -3.4 -1.6 -3.4 -3.5l-0 -95.7c0.2 -1.8 1.7 -3.1 3.6 -3.1l17.3 0c1.6 0.1 3 1.2 3.3 2.7l0 14.6 0.3 0c5.2 -13.1 12.5 -19.3 25.4 -19.3 8.4 0 16.5 3 21.8 11.3 4.9 7.7 4.9 20.5 4.9 29.8l0 60.2c-0.2 1.7 -1.8 3 -3.6 3l-18.7 0c-1.7 -0.1 -3.1 -1.4 -3.3 -3l0 -52c0 -10.5 1.2 -25.8 -11.7 -25.8 -4.5 0 -8.7 3 -10.8 7.7 -2.6 5.8 -3 11.7 -3 18.1l0 51.5c-0 1.9 -1.7 3.5 -3.6 3.5" id="path18" style="fill:#FFFFFF;fill-rule:evenodd;stroke:none"/>
      <path d="m462.3 740.4c0 -4.8 4.1 -8.7 9.2 -8.7 5.1 0 9.2 3.9 9.2 8.7 0 4.8 -4.1 8.7 -9.2 8.7 -5.1 0 -9.2 -3.9 -9.2 -8.7" id="path20" style="fill:#FFFFFF;fill-rule:evenodd;stroke:none"/>
      <path d="m659.8 748c-1.9 -0.1 -3.5 -1.6 -3.5 -3.5l0 -95.7c0.1 -1.7 1.5 -3 3.3 -3.1l6.8 0c1.9 0 3.4 1.4 3.6 3.1l0 13.9c4.9 -11.1 13.9 -19.7 25.4 -19.7l0.7 0 0.7 0c12.2 0 21.1 9 24.4 22 5.2 -12.9 14.9 -22 27.7 -22l0.7 0 0.8 0c9 0 17.7 5.8 22.3 14.7 4.4 8.5 4.2 19.7 4.2 29.2l-0 57.5c0 1.8 -1.5 3.3 -3.3 3.5l-8.2 0c-1.8 -0.1 -3.2 -1.3 -3.5 -3l0 -58c0 -6.8 0.3 -14.1 -2.4 -20.3 -2.8 -6.4 -8.3 -10.4 -14.1 -10.6 -6.5 0.3 -12.5 5.1 -16.4 11.5 -5 8.3 -4.9 15.7 -4.9 25.4l0 52.3c-0.2 1.6 -1.6 2.8 -3.3 2.9l-8.1 0c-1.9 -0.1 -3.5 -1.6 -3.5 -3.5l-0.1 -61.4c0 -5.6 -0.3 -12.3 -2.9 -17.3 -3 -5.8 -8.4 -9.5 -14.1 -9.8 -5.9 0.3 -11.8 4.8 -15.3 10 -4.5 6.7 -5.4 14.9 -5.4 23.4l0 55.1c0 1.8 -1.5 3.3 -3.4 3.5l-8.2 0" id="path22" style="fill:#FFFFFF;fill-rule:evenodd;stroke:none"/>
      <path d="m603.7 750c-26.5 0 -38.3 -27 -38.3 -54 0 -28.4 13.9 -52.9 40.6 -52.9l0.7 0 0.7 0c25.9 0 38.8 26.2 38.8 53.1 0 28.6 -14.3 53.7 -41.1 53.7l-0.7 0 -0.7 0m1.9 -13.1c8.7 -0.3 15.6 -5.7 19.6 -14.7 3.6 -8.1 4.4 -17.3 4.4 -26.2 0 -9.6 -1 -19.7 -5.6 -28 -4.1 -7.2 -11 -11.8 -18.4 -12.1 -8.2 0.3 -15.6 5.9 -19.3 14.5 -3.3 7.4 -4.4 17.3 -4.4 25.6 0 9.3 1.2 20 5 28 3.7 7.6 10.9 12.6 18.6 12.9" id="path24" style="fill:#FFFFFF;fill-rule:evenodd;stroke:none"/>
      <path d="m521 736.5c11.9 -0.4 18.1 -9.9 20.7 -22.2 0.5 -1.5 1.7 -2.7 3.4 -2.7l7.8 -0c1.9 0.1 3.6 1.5 3.4 3.2 -3.6 21 -16.3 35.2 -34.3 35.2l-0.7 0 -0.7 0c-26.3 0 -37.6 -26.4 -37.6 -53.1 0 -26.6 11.5 -53.7 37.8 -53.7l0.7 0 0.7 0c18.2 0 31.3 14.1 34.1 35.1 0 1.6 -1.5 2.9 -3.2 3.1l-8.2 -0.1c-1.7 -0.2 -2.9 -1.7 -3.1 -3.4 -2 -11.7 -8.7 -21.1 -19.9 -21.4 -17.9 0.6 -22.9 22.5 -22.9 39.5 0 16.3 4.2 40.1 22.1 40.6" id="path26" style="fill:#FFFFFF;fill-rule:evenodd;stroke:none"/>
      <path d="m147.7 702.3c0 7.3 0.2 13.3 -3.5 19.8 -3 5.2 -7.7 8.5 -12.9 8.5 -7.2 0 -11.4 -5.5 -11.4 -13.5 0 -15.9 14.2 -18.8 27.7 -18.8l0 4m18.8 45.4c-1.2 1.1 -3 1.2 -4.4 0.4 -6.2 -5.1 -7.3 -7.5 -10.7 -12.4 -10.2 10.4 -17.5 13.6 -30.7 13.6 -15.7 0 -27.9 -9.7 -27.9 -29 0 -15.1 8.2 -25.4 19.9 -30.5 10.1 -4.5 24.3 -5.2 35.1 -6.5l0 -2.4c0 -4.4 0.3 -9.7 -2.3 -13.5 -2.3 -3.4 -6.6 -4.9 -10.5 -4.9 -7.1 0 -13.4 3.6 -15 11.2 -0.3 1.7 -1.5 3.3 -3.3 3.4l-18.1 -1.9c-1.5 -0.3 -3.2 -1.6 -2.8 -3.9 4.1 -21.9 24 -28.5 41.7 -28.5 9.1 0 20.9 2.4 28.1 9.3 9.1 8.5 8.2 19.8 8.2 32.1l0 29c0 8.7 3.6 12.6 7 17.3 1.2 1.7 1.4 3.7 -0.1 5 -3.8 3.2 -10.6 9.1 -14.3 12.4l-0 -0.1" id="path28" style="fill:#FFFFFF;fill-rule:evenodd;stroke:none"/>
      <path d="m-96.7 702.3c0 7.3 0.2 13.3 -3.5 19.8 -3 5.2 -7.7 8.5 -12.9 8.5 -7.2 0 -11.3 -5.5 -11.3 -13.5 0 -15.9 14.2 -18.8 27.7 -18.8l0 4m18.8 45.4c-1.2 1.1 -3 1.2 -4.4 0.4 -6.2 -5.1 -7.3 -7.5 -10.7 -12.4 -10.2 10.4 -17.5 13.6 -30.7 13.6 -15.7 0 -27.9 -9.7 -27.9 -29 0 -15.1 8.2 -25.4 19.9 -30.5 10.1 -4.5 24.3 -5.2 35.1 -6.5l0 -2.4c0 -4.4 0.3 -9.7 -2.3 -13.5 -2.3 -3.4 -6.6 -4.9 -10.5 -4.9 -7.1 0 -13.4 3.6 -15 11.2 -0.3 1.7 -1.5 3.3 -3.2 3.4l-18.1 -1.9c-1.5 -0.3 -3.2 -1.6 -2.8 -3.9 4.2 -21.9 24 -28.5 41.7 -28.5 9.1 0 20.9 2.4 28.1 9.3 9.1 8.5 8.2 19.8 8.2 32.1l0 29c0 8.7 3.6 12.6 7 17.3 1.2 1.7 1.5 3.7 -0.1 5 -3.8 3.2 -10.6 9.1 -14.3 12.4l-0.1 -0.1" id="path30" style="fill:#FFFFFF;fill-rule:evenodd;stroke:none"/>
      <path d="m796.1 646.8c4.5 0 8.2 3.6 8.2 8.2 0 4.5 -3.7 8.2 -8.2 8.2 -4.5 0 -8.2 -3.7 -8.2 -8.2 0 -4.6 3.7 -8.2 8.2 -8.2m0 -1.6c-5.2 0 -9.8 4.2 -9.8 9.8 0 5.4 4.5 9.8 9.8 9.8 5.3 0 9.8 -4.4 9.8 -9.8 0 -5.5 -4.5 -9.8 -9.8 -9.8m-3.7 15.3 2.1 0 0 -4.4 1.9 0c0.8 0 1 0.3 1.1 0.9 0 0.2 0.4 2.9 0.4 3.5l2.3 0c-0.3 -0.5 -0.4 -2 -0.6 -2.9 -0.2 -1.4 -0.3 -2.4 -1.8 -2.5 0.8 -0.3 2.1 -0.7 2.1 -2.7 0 -2.9 -2.5 -2.9 -3.9 -2.9l-3.7 0 0 11m2 -9.2 1.8 0c0.6 0 1.6 0 1.6 1.5 0 0.6 -0.3 1.5 -1.7 1.5l-1.7 0 0 -3" id="path32" style="fill:#FFFFFF;fill-rule:evenodd;stroke:none"/>
    </g>
  </g>
</svg>
