<?xml version="1.0" encoding="utf-8"?>
<!-- Generator: Adobe Illustrator 17.1.0, SVG Export Plug-In . SVG Version: 6.00 Build 0)  -->
<!DOCTYPE svg PUBLIC "-//W3C//DTD SVG 1.1//EN" "http://www.w3.org/Graphics/SVG/1.1/DTD/svg11.dtd">
<svg version="1.1"
	 id="svg2" sodipodi:docname="New document 1" inkscape:version="0.48.2 r9819" xmlns:dc="http://purl.org/dc/elements/1.1/" xmlns:cc="http://creativecommons.org/ns#" xmlns:rdf="http://www.w3.org/1999/02/22-rdf-syntax-ns#" xmlns:svg="http://www.w3.org/2000/svg" xmlns:sodipodi="http://sodipodi.sourceforge.net/DTD/sodipodi-0.dtd" xmlns:inkscape="http://www.inkscape.org/namespaces/inkscape"
	 xmlns="http://www.w3.org/2000/svg" xmlns:xlink="http://www.w3.org/1999/xlink" x="0px" y="0px" viewBox="0 0 1000 1000"
	 enable-background="new 0 0 1000 1000" xml:space="preserve">
<sodipodi:namedview  inkscape:window-maximized="0" inkscape:window-y="-21" inkscape:window-x="644" inkscape:window-height="1037" inkscape:window-width="1277" inkscape:current-layer="layer1" inkscape:document-units="px" inkscape:pageopacity="0.0" fit-margin-bottom="0.5" fit-margin-right="0.5" inkscape:pageshadow="2" fit-margin-top="0.5" fit-margin-left="0.5" showgrid="false" inkscape:cy="153.16309" inkscape:cx="1001.3206" inkscape:zoom="0.35" borderopacity="1.0" bordercolor="#666666" pagecolor="#ffffff" id="base">
	<inkscape:grid  type="xygrid" snapvisiblegridlinesonly="true" enabled="true" visible="true" empspacing="5" id="grid2996">
		</inkscape:grid>
</sodipodi:namedview>
<g id="layer1" transform="translate(2602.2742,67.05932)" inkscape:groupmode="layer" inkscape:label="Layer 1">
	<g id="g3086" transform="matrix(1.2485549,0,0,1.2485549,646.69249,-231.75874)">
		<path id="path3046" sodipodi:nodetypes="cccc" inkscape:connector-curvature="0" fill="#BC2328" d="M-2253.6,393.6l143.9,96.6
			l47.5-80.6L-2253.6,393.6z"/>
		<path id="path3042" inkscape:connector-curvature="0" fill="#FFFFFF" d="M-2197.8,301.4c-53.5,0-132.5,3.2-156.2,4
			c-25.7,2.3-35.2,3.6-49.3,15.7c-21.4,19.1-26.5,56.5-26.5,113.9v54.6c0,65.4,8.7,98.7,23,110.8c16.5,14.2,27.4,15.3,38.4,17
			c4.3,0.6,34.5,6,168.6,6c83.6,0,155.5-4,162.9-4.9c11.9-1.5,29.1-3.7,42.1-18.1c19.2-21.8,23-58,23-110.4v-63.6
			c0-33.9-1.9-81.9-23-102c-16-13.5-21.8-17.4-54.9-19C-2059,304.9-2140.7,301.4-2197.8,301.4z M-2247.2,398.4l123.5,63.8
			l-123.5,64.3V398.4z"/>
		<path id="path3048" sodipodi:nodetypes="cccccccccc" inkscape:connector-curvature="0" fill="#FFFFFF" d="M-2402.7,737.6v32.7
			h-6.5v-32.9l-29.1-53.1h7.6l24.7,46.8l24.9-46.8h7.4L-2402.7,737.6z"/>
		<path id="path3050" inkscape:connector-curvature="0" fill="#FFFFFF" d="M-2339.7,705.2c-10.9,0-28.2,5.2-28.2,33.2
			c0,24.9,14.1,33.4,27.9,33.4c14,0,28.9-7.8,28.9-33.4C-2311.1,713.2-2325.7,705.2-2339.7,705.2z M-2339.7,711.1
			c16.8,0,22,14.9,22,27.6c0,18-9.2,27.2-21.8,27.2c-10.8,0-22-6.7-22-27.6C-2361.4,725.2-2355.8,711.1-2339.7,711.1z"/>
		<path id="path3052" sodipodi:nodetypes="ccccccccccccc" inkscape:connector-curvature="0" fill="#FFFFFF" d="M-2294.7,706.4h6v43
			c0,10.7,5.1,16.6,16.5,16.6c11.3,0,22-4.5,22-21.6v-38h6v64h-5.3l-1.1-8.8c-4.2,6.8-11.8,10.2-22,10.2c-11.4,0-22.1-4.2-22.1-21.6
			V706.4z"/>
		<path id="path3054" sodipodi:nodetypes="ccccccccc" inkscape:connector-curvature="0" fill="#FFFFFF" d="M-2206.5,770.4v-80h-28.2
			v-6h63v6h-28.2v80H-2206.5z"/>
		<path id="path3056" sodipodi:nodetypes="ccccccccccccc" inkscape:connector-curvature="0" fill="#FFFFFF" d="M-2161.8,706.4h6v43
			c0,10.7,5.1,16.6,16.5,16.6c11.3,0,22-4.5,22-21.6v-38h6v64h-5.3l-1.1-8.8c-4.2,6.8-11.8,10.2-22,10.2c-11.4,0-22.1-4.2-22.1-21.6
			V706.4z"/>
		<path id="path3058" inkscape:connector-curvature="0" fill="#FFFFFF" d="M-2090.5,679.4v91h4.6l1.1-10c4.3,7,11.6,11.4,21.2,11.4
			c16.5,0,27.6-10.3,27.6-33.3c0-14.5-3.8-33.2-27-33.2c-10.1,0-14.8,2.2-20.9,10.5v-36.5H-2090.5z M-2063.3,710.8
			c13.6,0,20.7,9.9,20.7,28c0,19.1-9.2,27.5-20.7,27.5c-17.5,0-20.7-12.5-20.7-27.9C-2084,716-2075.5,710.8-2063.3,710.8z"/>
		<path id="path3060" inkscape:connector-curvature="0" fill="#FFFFFF" d="M-1995.2,705.2c-13.4,0-27.7,9-27.7,33.8
			c0,23.8,13.3,32.8,30.4,32.8c11.6,0,19.7-4.5,19.7-4.5v-5.7c0,0-7.4,4.1-19.8,4.1c-19.5,0-23.7-13.8-23.7-26.5h45.5v-8
			C-1970.7,715.8-1981.2,705.2-1995.2,705.2z M-1995.2,710.8c9.4,0,18.5,7.4,18.5,23.4h-39.5
			C-2016.2,723.2-2009.2,710.8-1995.2,710.8z"/>
	</g>
</g>
</svg>
