<?xml version="1.0" encoding="utf-8"?>
<!-- Generator: Adobe Illustrator 17.1.0, SVG Export Plug-In . SVG Version: 6.00 Build 0)  -->
<!DOCTYPE svg PUBLIC "-//W3C//DTD SVG 1.1//EN" "http://www.w3.org/Graphics/SVG/1.1/DTD/svg11.dtd">
<svg version="1.1" id="Layer_1" xmlns="http://www.w3.org/2000/svg" xmlns:xlink="http://www.w3.org/1999/xlink" x="0px" y="0px"
	 viewBox="0 0 244.8 50.1" enable-background="new 0 0 244.8 50.1" xml:space="preserve">
<g>
	<defs>
		<rect id="SVGID_1_" x="0" y="0" width="244.8" height="50.1"/>
	</defs>
	<clipPath id="SVGID_2_">
		<use xlink:href="#SVGID_1_"  overflow="visible"/>
	</clipPath>
	<path clip-path="url(#SVGID_2_)" fill="#FFFFFF" d="M97.2,15.8c-11.3,0-14.6,6-14.6,13.3V36c0,8.4,4.4,14.2,15.4,14.2
		c5,0,7.7-0.3,12.8-1.3v-8.3c-5.3,0.9-7.8,1.1-12,1.1c-4.6,0-6-1-6-4.9V36h18.8v-6.9C111.8,21.7,108.5,15.8,97.2,15.8 M101.5,29.1
		H93v-1.3c0-2.4,0.8-4.3,4.3-4.3c3.5,0,4.3,1.9,4.3,4.3V29.1z M163.2,15.8c-12.1,0-15,6.8-15,13.8v6.7c0,7,2.9,13.7,15,13.7
		c12.1,0,15-6.8,15-13.7v-6.7C178.1,22.6,175.2,15.8,163.2,15.8 M167.8,37.3c0,2.4-1.2,4.3-4.7,4.3c-3.5,0-4.7-1.9-4.7-4.3v-8.7
		c0-2.4,1.2-4.3,4.7-4.3c3.5,0,4.7,1.9,4.7,4.3V37.3z M196.1,15.8c-12.1,0-15,6.8-15,13.8v6.7c0,7,2.9,13.7,15,13.7
		c12.1,0,15-6.8,15-13.7v-6.7C211,22.6,208.1,15.8,196.1,15.8 M200.8,37.3c0,2.4-1.2,4.3-4.7,4.3c-3.5,0-4.7-1.9-4.7-4.3v-8.7
		c0-2.4,1.2-4.3,4.7-4.3c3.5,0,4.7,1.9,4.7,4.3V37.3z M53.9,30v6c0,8.4,4.4,14.2,15.4,14.2c2.6,0,5.6-0.3,10.3-1.3v-8.3
		c-5.3,0.9-6.9,1.1-9.4,1.1c-4.6,0-6-1-6-4.9v-7.4c0-3.9,1.4-4.9,6-4.9c2.6,0,4.1,0.2,9.4,1.1v-8.3c-4.7-1-7.7-1.3-10.3-1.3
		C58.3,15.8,53.9,21.6,53.9,30 M23.2,16.3h-7.8l0-4.3c0-2.2,0.2-3.4,3.4-3.4h4.3V0h-6.9C8,0,5.1,4.2,5.1,11.1v5.1H0v8.6h5.1v24.8
		h10.3V24.8h6.9L23.2,16.3z M36.1,16.3h-9.6l-0.9,8.6h8.8c5.4,0,5.8,1,5.8,4.5v1.5h-7.1c-7,0-10.9,2.4-10.9,9.3c0,5.8,3.3,10,9.6,10
		c2.3,0,5.8-0.3,9.7-2.5l0.4,2.2h8.6V29.4C50.5,20,47.9,16.3,36.1,16.3 M40.2,41.4c-1.5,0.7-2.8,1.4-4.9,1.4c-2,0-2.8-1-2.8-2.9
		c0-1.9,1-2.3,3.1-2.3h4.6V41.4z M133.2,15.8c-2.6,0-5.5,0.4-7.7,1.2V0.9l-10.3,1.7v46.2c5.6,0.9,8.6,1.3,13.6,1.3
		c14,0,16.3-5.9,16.3-14v-8.3C145.2,20.4,143.5,15.8,133.2,15.8 M134.9,36.2c0,3.2-0.7,5.5-5.7,5.5c-1.4,0-2.2,0-3.7-0.1V25.7
		c1.5-0.7,3-1.4,5.1-1.4c3.5,0,4.3,1.9,4.3,4.3V36.2z M244.8,16.3h-11.1l-9.4,14.9V0.9L214,2.6v47.1h10.3V34l9.4,15.7h11.1
		l-10.3-17.1L244.8,16.3z"/>
</g>
</svg>
