<?xml version="1.0" encoding="utf-8"?>
<!-- Generator: Adobe Illustrator 17.1.0, SVG Export Plug-In . SVG Version: 6.00 Build 0)  -->
<!DOCTYPE svg PUBLIC "-//W3C//DTD SVG 1.1//EN" "http://www.w3.org/Graphics/SVG/1.1/DTD/svg11.dtd">
<svg version="1.1" id="Layer_1" xmlns="http://www.w3.org/2000/svg" xmlns:xlink="http://www.w3.org/1999/xlink" x="0px" y="0px"
	 viewBox="0 0 241.2 106.6" enable-background="new 0 0 241.2 106.6" xml:space="preserve">
<path fill-rule="evenodd" clip-rule="evenodd" d="M30.9,28.7c3.7,0,8-0.9,12.9-2.8v12c-1.1,0.4-2.6,0.8-4.7,1.3
	c0.6,1.8,0.9,3.5,0.9,5c0,5-1.5,9.3-4.5,13c-3,3.7-6.9,5.9-11.6,6.6c-3.1,0.5-4.7,2.1-4.7,5c0,1,0.5,2,1.5,3
	c1.3,1.5,3.3,2.4,5.8,2.8c11.1,1.7,16.7,6.3,16.7,13.9c0,12.1-7.2,18.1-21.6,18.1c-5.9,0-10.8-1-14.6-3.1C2.4,100.8,0,96.7,0,91
	c0-6.5,3.6-11,10.8-13.4v-0.2c-2.6-1.6-4-4.1-4-7.5c0-4.4,1.2-7.1,3.7-8.2v-0.2c-2.5-0.9-4.7-2.8-6.6-5.8c-2.2-3.3-3.3-6.8-3.3-10.5
	c0-5.6,2-10.3,5.9-14c3.8-3.5,8.4-5.2,13.6-5.2C24.1,25.9,27.6,26.8,30.9,28.7L30.9,28.7z M31.4,90c0-4-3.3-5.9-9.8-5.9
	c-6.3,0-9.4,2.1-9.4,6.2c0,4,3.4,6.1,10.3,6.1C28.4,96.3,31.4,94.2,31.4,90L31.4,90z M13.4,45.3c0,5.4,2.4,8,7.3,8
	c4.7,0,7.1-2.7,7.1-8.2c0-2.3-0.5-4.2-1.6-5.8c-1.3-1.8-3.1-2.7-5.5-2.7C15.9,36.6,13.4,39.5,13.4,45.3L13.4,45.3z M13.4,45.3"/>
<path fill-rule="evenodd" clip-rule="evenodd" d="M56.2,17.4c-2.3,0-4.2-0.9-5.8-2.6c-1.6-1.7-2.4-3.7-2.4-6.1
	c0-2.4,0.8-4.5,2.4-6.2C52,0.9,54,0,56.2,0c2.2,0,4.1,0.9,5.7,2.6c1.6,1.7,2.4,3.8,2.4,6.2c0,2.3-0.8,4.4-2.4,6.1
	C60.3,16.5,58.4,17.4,56.2,17.4L56.2,17.4z M56.2,17.4"/>
<path fill-rule="evenodd" clip-rule="evenodd" d="M49.6,78.3c0.2-1.6,0.2-4.2,0.2-7.9V34.1c0-3.7-0.1-6.2-0.2-7.6h13.2
	c-0.2,1.5-0.2,3.9-0.2,7.3v35.8c0,4,0.1,6.8,0.2,8.6H49.6z M49.6,78.3"/>
<path fill-rule="evenodd" clip-rule="evenodd" d="M86.9,26.5H97v11.3c-0.4,0-1.1,0-2.2-0.1c-1-0.1-2-0.1-3-0.1h-5v21.7
	c0,5.2,1.7,7.8,5.1,7.8c2.4,0,4.6-0.7,6.5-2v11.7c-2.9,1.6-6.3,2.3-10.4,2.3c-5.7,0-9.6-2-11.8-6.1c-1.6-3-2.4-7.8-2.4-14.3V37.8
	h0.1v-0.2l-1.7-0.1c-1,0-2.3,0.1-4,0.3V26.5h5.7v-4.5c0-2.2-0.1-3.9-0.3-5.2h13.5c-0.2,1.5-0.3,3.1-0.3,5V26.5z M86.9,26.5"/>
<path fill-rule="evenodd" clip-rule="evenodd" d="M127.9,26.1c-3.3,0-6.8,1.2-10.5,3.5V9.2c0-4.4,0.1-7.3,0.2-8.7h-13.3
	c0.2,1.2,0.4,4.2,0.4,8.7v61.7c0,3.6-0.1,6-0.4,7.3h13.5c0-0.2-0.1-1.2-0.2-2.9c-0.2-1.7-0.2-3.2-0.2-4.5V42.2
	c2.7-2.6,5.4-3.8,7.9-3.8c3,0,5.2,1.5,6.8,4.4c1.2,2.3,1.7,5.2,1.7,8.7l-0.1,15.7c0,2.6-0.2,6.3-0.6,11h14.1
	c-0.3-1.9-0.5-5.5-0.5-10.7v-16c0-6.8-1.5-12.5-4.5-17.3C138.8,28.8,134,26.1,127.9,26.1L127.9,26.1z M127.9,26.1"/>
<path fill-rule="evenodd" clip-rule="evenodd" d="M169.1,78.7c-6.1,0-10.7-2.7-13.6-8.2c-2.3-4.4-3.5-10.2-3.5-17.4v-16
	c0-5.3-0.2-8.9-0.5-10.7h14c-0.2,1.7-0.4,5.4-0.5,11L165,53.2c0,4.4,0.5,7.6,1.5,9.6c1.2,2.4,3.3,3.6,6.4,3.6c2.2,0,4.6-1.3,7.3-3.8
	V33.8c0-1.3-0.1-2.8-0.2-4.5c-0.2-1.7-0.2-2.6-0.2-2.8h13.5c-0.2,1.3-0.2,3.8-0.2,7.3v35.7c0,4.6,0.1,7.5,0.2,8.7h-12.7v-4.2
	C177,77.2,173.2,78.7,169.1,78.7L169.1,78.7z M169.1,78.7"/>
<path fill-rule="evenodd" clip-rule="evenodd" d="M221.6,78.6c-4.2,0-7.7-1.5-10.5-4.5v4.2h-12.4c0.2-1.3,0.4-3.8,0.4-7.3V9.2
	c0-4.6-0.1-7.5-0.4-8.7h13.3c-0.2,1.4-0.2,4.3-0.2,8.7v20.3c3.6-2.3,7.1-3.4,10.5-3.4c6.1,0,11,2.7,14.5,8.2
	c3,4.7,4.4,10.5,4.4,17.3c0,6.9-1.6,12.9-4.7,18.1C232.8,75.6,227.9,78.6,221.6,78.6L221.6,78.6z M219.9,38.4c-2.6,0-5.2,1.3-8,3.8
	v20.2c2.5,2.4,4.9,3.6,7.3,3.6c3,0,5.3-1.7,6.9-5c1.2-2.6,1.9-5.8,1.9-9.4C227.9,42.8,225.3,38.4,219.9,38.4L219.9,38.4z
	 M219.9,38.4"/>
<g opacity="0.8">
	<path d="M58.7,89.4c-0.7-1-1.7-1.6-3-1.6c-1.2,0-2.4,1-2.4,2.2c0,3.4,7.9,2,7.9,8.6c0,4-2.5,6.8-6.6,6.8c-2.7,0-4.8-1.6-6.1-3.9
		l2.5-2.5c0.5,1.5,1.9,2.9,3.6,2.9c1.6,0,2.6-1.3,2.6-2.9c0-2.1-1.9-2.6-3.5-3.2c-2.6-1.1-4.4-2.4-4.4-5.4c0-3.3,2.5-6,5.8-6
		c1.8,0,4.2,0.9,5.4,2.2L58.7,89.4z"/>
	<path d="M72.1,105.5c-6.1,0-9.9-4.7-9.9-10.5c0-5.9,3.9-10.5,9.9-10.5c5.9,0,9.9,4.5,9.9,10.5C81.9,100.9,78.2,105.5,72.1,105.5z
		 M72.1,88.4c-3.7,0-5.8,3.2-5.8,6.5c0,3.1,1.5,6.8,5.8,6.8c4.3,0,5.8-3.8,5.8-6.8C77.9,91.6,75.8,88.4,72.1,88.4z"/>
	<path d="M97.2,90.3c-1.1-1.3-2.7-2.1-4.4-2.1c-3.7,0-5.9,3.4-5.9,6.9c0,3.4,2.2,6.7,5.8,6.7c1.7,0,3.3-0.9,4.4-2.1v4.6
		c-1.5,0.7-2.9,1.2-4.5,1.2c-5.6,0-9.8-4.8-9.8-10.3c0-5.7,4-10.7,9.8-10.7c1.6,0,3.1,0.4,4.4,1.2V90.3z"/>
	<path d="M103.6,105h-3.9V85.1h3.9V105z"/>
	<path d="M110.5,100.8l-1.6,4.2h-4.1l7.8-20.5h3l7.6,20.5H119l-1.5-4.2H110.5z M113.9,90.4L113.9,90.4l-2.2,7.2h4.7L113.9,90.4z"/>
	<path d="M128.2,101.6h5.5v3.4h-9.4V85.1h3.9V101.6z"/>
	<path d="M155.9,90.3c-1.1-1.3-2.7-2.1-4.4-2.1c-3.7,0-5.9,3.4-5.9,6.9c0,3.4,2.2,6.7,5.8,6.7c1.7,0,3.3-0.9,4.4-2.1v4.6
		c-1.5,0.7-2.9,1.2-4.5,1.2c-5.6,0-9.8-4.8-9.8-10.3c0-5.7,4-10.7,9.8-10.7c1.6,0,3.1,0.4,4.4,1.2V90.3z"/>
	<path d="M167.3,105.5c-6.1,0-9.9-4.7-9.9-10.5c0-5.9,3.9-10.5,9.9-10.5c5.9,0,9.9,4.5,9.9,10.5
		C177.2,100.9,173.4,105.5,167.3,105.5z M167.3,88.4c-3.7,0-5.8,3.2-5.8,6.5c0,3.1,1.5,6.8,5.8,6.8s5.8-3.8,5.8-6.8
		C173.2,91.6,171,88.4,167.3,88.4z"/>
	<path d="M179.1,85.1h5.6c5.8,0,9.6,4.3,9.6,10c0,5.6-4,9.9-9.6,9.9h-5.5V85.1z M183,101.6h0.6c4.8,0,6.6-2.6,6.6-6.6
		c0-4.3-2.2-6.6-6.6-6.6H183V101.6z"/>
	<path d="M200.1,105h-3.9V85.1h3.9V105z"/>
	<path d="M202.9,84.5h2.8l10.5,13.9h0.1V85.1h3.9v20.3h-2.8l-10.5-13.9h-0.1V105h-3.9V84.5z"/>
	<path d="M240.5,94.4v0.5c0,5.6-2.9,10.6-9.1,10.6c-5.8,0-9.5-4.9-9.5-10.4c0-5.7,3.8-10.6,9.7-10.6c3.4,0,6.3,1.7,7.9,4.8l-3.4,1.8
		c-0.8-1.8-2.5-3.2-4.5-3.2c-3.8,0-5.6,3.8-5.6,7.1c0,3.3,1.9,7,5.6,7c2.4,0,4.5-2.1,4.5-4.5h-4.2v-3.2H240.5z"/>
</g>
</svg>
